<?xml version="1.0" standalone="no"?>
<!DOCTYPE svg PUBLIC "-//W3C//DTD SVG 20010904//EN"
 "http://www.w3.org/TR/2001/REC-SVG-20010904/DTD/svg10.dtd">
<svg version="1.0" xmlns="http://www.w3.org/2000/svg"
 width="2066.000000pt" height="955.000000pt" viewBox="0 0 2066.000000 955.000000"
 preserveAspectRatio="xMidYMid meet">

<g transform="translate(0.000000,955.000000) scale(0.100000,-0.100000)"
fill="#000000" stroke="none">
<path d="M5294 8166 c-171 -15 -185 -17 -385 -57 -629 -122 -1232 -415 -1714
-832 -188 -162 -402 -390 -545 -576 -57 -76 -210 -299 -210 -308 0 -2 -11 -20
-23 -41 -71 -112 -202 -373 -257 -512 -122 -303 -207 -634 -246 -948 -34 -276
-29 -753 11 -1007 55 -349 162 -716 285 -981 17 -35 30 -65 30 -68 0 -2 32
-64 71 -138 107 -200 227 -391 333 -528 64 -83 207 -253 221 -262 5 -4 111 -8
235 -8 124 0 466 -4 760 -10 294 -5 841 -14 1215 -20 374 -5 784 -12 910 -15
127 -3 438 -8 693 -11 254 -4 461 -9 458 -11 -2 -2 -948 -4 -2102 -4 l-2099 1
110 -108 c61 -59 144 -135 185 -168 l76 -62 919 -16 c506 -9 1213 -20 1570
-26 358 -5 767 -12 910 -15 143 -2 312 -6 375 -7 110 -2 112 -2 40 -8 -52 -4
-3116 -13 -3688 -10 -11 0 -11 -2 0 -13 33 -31 257 -173 388 -245 l145 -81
295 -6 c505 -9 2168 -34 2445 -36 83 -1 155 -4 160 -8 6 -3 -613 -8 -1375 -11
l-1385 -5 115 -47 c319 -130 673 -220 1005 -255 189 -20 593 -22 780 -4 365
34 771 140 1120 290 323 140 686 366 944 588 109 94 308 292 394 393 45 52 84
97 87 100 30 26 219 297 324 466 122 194 298 609 366 859 12 44 24 88 26 98 5
16 -49 17 -1044 17 -831 0 -1051 -3 -1055 -12 -2 -7 -5 -51 -6 -98 -3 -108
-26 -155 -91 -188 -44 -22 -52 -22 -308 -20 l-263 3 -31 70 c-46 106 -93 171
-192 270 -400 399 -1050 332 -1369 -140 -80 -119 -131 -263 -145 -411 l-7 -69
-602 0 -601 0 -39 31 c-47 39 -72 99 -72 182 -1 62 -1 62 -30 62 -66 0 -121
38 -152 105 -16 34 -19 66 -19 223 0 190 7 229 48 276 23 26 90 56 127 56 l30
0 -3 252 c-3 163 0 271 7 304 11 49 26 65 880 918 807 806 869 871 875 909 9
54 67 112 129 129 29 7 49 19 53 30 3 10 17 27 31 38 25 20 38 20 780 20 829
0 800 2 827 -60 6 -16 27 -40 46 -52 18 -13 44 -43 57 -67 23 -44 23 -47 23
-408 l0 -363 85 0 84 0 3 -155 3 -155 225 272 c396 479 455 543 605 655 179
135 385 203 612 203 57 0 103 2 103 4 0 25 -202 320 -318 464 -327 408 -770
764 -1232 992 -69 34 -133 66 -142 70 -45 24 -226 96 -343 135 -234 80 -559
152 -787 175 -170 17 -585 21 -754 6z m552 -4587 c241 -74 409 -242 483 -483
44 -142 24 -352 -48 -494 -34 -68 -110 -171 -151 -206 -17 -14 -30 -27 -30
-29 0 -3 51 -8 113 -11 61 -4 301 -18 532 -31 231 -13 517 -29 635 -35 118 -6
322 -17 453 -25 131 -8 336 -20 455 -26 119 -6 235 -14 257 -19 22 -4 -651 -7
-1495 -7 l-1535 2 -77 28 c-125 46 -187 85 -279 177 -93 92 -134 158 -176 280
-23 65 -26 92 -27 210 -1 122 2 142 26 211 40 112 92 195 177 279 109 108 204
159 366 196 81 19 232 10 321 -17z"/>
<path d="M5540 3281 c-81 -26 -113 -45 -169 -101 -135 -135 -157 -351 -49
-507 176 -257 558 -225 692 57 29 60 31 73 30 170 0 91 -3 112 -26 160 -51
109 -136 183 -252 219 -82 25 -152 26 -226 2z m218 -218 c92 -60 118 -187 56
-275 -98 -138 -310 -98 -355 67 -21 75 10 152 82 205 37 26 50 30 108 30 56 0
74 -5 109 -27z"/>
<path d="M5490 6105 c0 0 11 -22 25 -49 51 -100 44 -112 -271 -426 l-265 -266
27 -99 c19 -74 25 -114 21 -152 l-6 -53 137 0 136 0 -97 99 c-53 54 -97 105
-97 113 0 9 9 27 21 42 39 49 60 38 202 -104 71 -72 131 -130 132 -130 2 0 6
13 10 28 3 16 19 45 36 65 56 68 58 68 735 65 555 -3 601 -4 632 -21 l33 -18
-3 389 -3 388 -28 42 c-15 23 -44 50 -66 61 -37 19 -64 20 -675 23 -350 2
-636 3 -636 3z"/>
<path d="M6262 4718 c-18 -18 -15 -133 4 -152 13 -14 49 -16 234 -16 251 0
240 -4 240 94 0 87 4 86 -249 86 -155 0 -220 -3 -229 -12z"/>
<path d="M3528 3659 c-12 -6 -18 -22 -18 -44 0 -65 -2 -65 438 -65 l393 0 24
25 c30 29 31 49 5 75 -19 19 -33 20 -422 20 -255 0 -409 -4 -420 -11z"/>
<path d="M9930 3289 c-85 -38 -130 -98 -130 -172 0 -52 17 -71 112 -126 49
-28 64 -42 66 -63 3 -28 -36 -68 -69 -68 -25 0 -49 27 -49 56 0 24 -2 25 -62
22 l-63 -3 -3 -55 c-2 -47 1 -59 23 -82 46 -50 145 -59 235 -22 72 30 119 102
120 182 0 52 -20 75 -108 123 -85 46 -94 93 -24 120 27 10 62 -11 62 -38 0 -9
17 -13 65 -13 l65 0 0 43 c0 49 -19 81 -60 102 -41 21 -126 19 -180 -6z"/>
<path d="M10292 3301 c-5 -3 -18 -42 -30 -86 -11 -44 -40 -158 -66 -254 -25
-95 -46 -180 -46 -188 0 -11 13 -13 61 -11 l62 3 23 85 c13 47 44 162 69 256
24 94 47 179 51 188 6 15 -1 16 -54 15 -33 -1 -65 -5 -70 -8z"/>
<path d="M10872 3279 c-195 -97 -285 -328 -175 -450 61 -68 126 -87 229 -68
92 17 215 103 253 177 12 22 11 22 -54 22 -53 0 -69 -4 -86 -21 -76 -76 -167
-93 -219 -41 -38 38 -46 88 -26 150 27 81 115 151 191 152 44 0 92 -33 100
-69 7 -31 7 -31 76 -31 67 0 69 1 69 25 0 34 -26 94 -53 123 -41 44 -90 62
-170 62 -62 0 -83 -5 -135 -31z"/>
<path d="M11515 3292 c-140 -60 -237 -176 -252 -302 -9 -75 3 -117 49 -166 75
-82 190 -94 317 -33 223 105 291 395 116 491 -41 23 -62 27 -120 27 -43 0 -85
-7 -110 -17z m142 -112 c40 -24 55 -51 55 -103 0 -56 -14 -88 -59 -138 -45
-50 -86 -69 -146 -69 -73 0 -126 66 -112 139 15 80 73 152 141 176 54 19 84
18 121 -5z"/>
<path d="M11997 3303 c-4 -7 -27 -89 -122 -445 -13 -47 -21 -89 -17 -92 3 -3
27 -6 53 -6 36 0 51 5 58 18 5 9 28 91 50 182 23 91 44 171 46 179 14 36 20
-16 25 -187 l5 -187 36 -3 c47 -4 32 -24 174 238 43 80 80 147 82 149 21 29
-15 -135 -83 -371 -5 -16 2 -18 51 -18 48 0 57 3 65 23 13 32 140 515 136 518
0 0 -37 3 -81 6 l-80 4 -89 -158 c-112 -199 -115 -205 -124 -199 -4 2 -8 71
-10 153 -4 217 2 203 -92 203 -43 0 -81 -3 -83 -7z"/>
<path d="M12660 3268 c-6 -24 -15 -56 -20 -73 -18 -59 -110 -415 -110 -425 0
-14 107 -13 116 2 4 7 17 46 29 88 l21 75 84 5 c99 7 132 22 188 85 66 75 80
185 29 233 -37 35 -77 44 -204 48 l-122 5 -11 -43z m218 -94 c29 -20 28 -56
-1 -90 -20 -23 -34 -28 -85 -32 -34 -2 -62 -1 -62 2 0 4 7 36 16 71 l16 65 47
0 c26 0 56 -7 69 -16z"/>
<path d="M13098 3041 c-98 -147 -178 -271 -178 -274 0 -4 29 -7 65 -7 65 0 65
0 90 40 l25 40 100 0 99 0 3 -37 3 -38 70 0 c64 0 70 2 68 20 -3 18 -44 346
-58 455 -9 69 -10 70 -62 70 l-48 -1 -177 -268z m192 -6 l0 -83 -56 -4 c-61
-3 -74 4 -51 30 8 9 27 42 42 72 52 105 65 102 65 -15z"/>
<path d="M13655 3298 c-3 -12 -20 -72 -109 -409 -36 -133 -37 -129 28 -129 30
0 58 5 62 11 7 13 11 25 52 193 16 66 33 121 38 123 5 2 24 -38 41 -89 52
-157 77 -223 88 -231 5 -4 32 -6 59 -5 l48 3 18 60 c35 120 120 450 120 468 0
16 -8 18 -57 15 l-58 -3 -41 -165 c-23 -90 -46 -166 -51 -167 -5 -2 -33 68
-62 154 -30 87 -59 164 -64 171 -5 6 -31 12 -59 12 -30 0 -50 -5 -53 -12z"/>
<path d="M14182 3271 c3 -20 18 -97 34 -172 l28 -137 -22 -93 c-12 -52 -22
-98 -22 -102 0 -4 28 -7 61 -5 l62 3 26 95 c15 52 31 102 35 110 9 16 52 75
166 230 39 52 70 97 70 101 0 9 -112 10 -126 1 -6 -4 -42 -53 -79 -110 -37
-57 -70 -101 -72 -98 -3 3 -10 51 -17 108 l-11 103 -68 1 -69 2 4 -37z"/>
<path d="M14934 3302 c-6 -4 -31 -79 -54 -167 -23 -88 -55 -206 -70 -263 -20
-75 -24 -105 -16 -108 7 -3 72 -3 146 -2 l134 3 13 50 c7 28 13 53 13 58 0 4
-34 7 -76 7 l-76 0 4 28 c3 15 26 106 52 203 25 97 46 182 46 188 0 12 -98 15
-116 3z"/>
<path d="M15280 3307 c0 -3 -18 -74 -41 -158 -64 -238 -99 -373 -99 -381 0 -5
27 -8 60 -8 72 0 65 -12 116 185 20 77 49 187 65 244 16 57 27 107 24 111 -4
7 -125 14 -125 7z"/>
<path d="M15510 3268 c-6 -24 -24 -90 -40 -148 -77 -286 -90 -336 -90 -348 0
-10 15 -12 57 -10 l58 3 48 190 c27 104 50 192 53 194 11 11 13 -14 15 -139 1
-74 4 -161 6 -192 l5 -58 39 0 c37 0 39 2 80 77 24 43 55 100 71 128 15 27 44
80 63 118 19 37 39 67 44 67 7 0 -20 -116 -74 -310 -22 -80 -22 -80 39 -80
l55 0 16 58 c28 93 125 466 125 477 0 6 -35 11 -82 13 l-83 2 -50 -92 c-27
-51 -59 -108 -70 -128 -11 -19 -33 -59 -49 -88 -16 -28 -32 -49 -35 -46 -3 3
-10 83 -16 177 l-10 172 -82 3 -82 3 -11 -43z"/>
<path d="M16125 3047 c-37 -144 -70 -268 -73 -275 -3 -10 11 -12 64 -10 67 3
68 4 75 33 3 17 32 129 64 250 32 121 60 229 62 241 4 20 0 21 -60 22 l-64 1
-68 -262z"/>
<path d="M16380 3268 c-6 -24 -13 -51 -16 -60 -5 -16 2 -18 45 -18 34 0 51 -4
51 -12 0 -11 -26 -115 -84 -333 -23 -87 -24 -85 44 -85 70 0 64 -9 104 151 15
57 37 142 49 189 l23 85 54 5 c53 5 55 6 66 45 24 80 34 75 -156 75 l-169 0
-11 -42z"/>
<path d="M16790 3268 c-6 -24 -22 -83 -35 -133 -48 -174 -95 -357 -95 -366 0
-15 276 -12 287 4 9 11 33 86 33 101 0 3 -36 6 -80 6 -78 0 -80 1 -80 24 0 14
4 36 10 50 9 24 14 25 91 28 l82 3 13 50 c7 28 13 53 14 57 0 4 -34 7 -76 7
-42 0 -78 1 -80 4 -2 2 1 22 8 43 l13 39 84 5 85 5 13 50 c7 28 13 53 13 58 0
4 -65 7 -145 7 l-144 0 -11 -42z"/>
<path d="M17174 3284 c-3 -16 -35 -138 -70 -271 -35 -134 -64 -245 -64 -248 0
-3 42 -5 93 -5 240 1 340 49 410 197 26 55 32 83 35 148 3 70 1 84 -20 115
-40 60 -97 81 -247 87 l-130 6 -7 -29z m233 -114 c79 -48 36 -222 -68 -276
-15 -7 -53 -14 -84 -14 -49 0 -56 2 -51 18 4 15 37 141 66 250 11 42 11 42 58
42 29 0 59 -8 79 -20z"/>
</g>
</svg>
